# Blender 4.4.0
# www.blender.org
mtllib matesovina.mtl
o Cube.001
v -1.150903 2.357092 -1.074572
v -0.927736 2.133925 0.925428
v 0.849097 2.357092 -1.074572
v 0.625929 2.133925 0.925428
v -1.150903 0.357092 -1.074571
v -0.927736 0.580260 0.925429
v 0.849097 0.357092 -1.074571
v 0.625929 0.580260 0.925429
v -1.150903 2.357092 0.925428
v 0.849097 2.357092 0.925428
v 0.849097 0.357092 0.925429
v -1.150903 0.357092 0.925429
v -0.927736 2.133925 0.641995
v 0.625929 2.133925 0.641995
v 0.625929 0.580260 0.641996
v -0.927736 0.580260 0.641996
v -0.150903 0.580260 1.307850
v -0.150903 0.580260 1.085899
v -0.150903 2.133925 1.085898
v -0.150903 2.133925 1.307849
v -0.150903 2.133925 2.417607
v -0.150903 2.133925 2.639559
v -0.150903 1.690020 0.641995
v -0.150903 1.468068 0.641995
v -0.150903 1.246116 0.641995
v -0.150903 1.024164 0.641996
v -0.150903 1.468068 3.083462
v -0.150903 1.246116 3.083462
v -0.150903 1.024164 3.083462
v -0.150903 1.911973 0.863947
v -0.150903 1.690020 0.863947
v -0.150903 1.468068 0.863947
v -0.150903 1.246116 0.863948
v -0.150903 1.024164 0.863948
v -0.150903 1.911973 1.085898
v -0.150903 1.690020 1.085898
v -0.150903 1.468068 1.085898
v -0.150903 1.246116 1.085899
v -0.150903 1.024164 1.085899
v -0.150903 0.802212 1.085899
v -0.150903 1.911973 1.307849
v -0.150903 1.690020 1.307850
v -0.150903 1.468068 1.307850
v -0.150903 1.246116 1.307850
v -0.150903 1.024164 1.307850
v -0.150903 0.802212 1.307850
v -0.150903 1.468068 1.529802
v -0.150903 1.246116 1.529802
v -0.150903 1.468068 1.751753
v -0.150903 1.246116 1.751753
v -0.150903 1.468068 1.973705
v -0.150903 1.246116 1.973705
v -0.150903 1.690020 2.195656
v -0.150903 1.468068 2.195656
v -0.150903 1.246116 2.195656
v -0.150903 1.911973 2.417607
v -0.150903 1.690020 2.417607
v -0.150903 1.468068 2.417607
v -0.150903 1.246116 2.417607
v -0.150903 1.024164 2.417607
v -0.150903 1.911973 2.639559
v -0.150903 1.690020 2.639559
v -0.150903 1.468068 2.639559
v -0.150903 1.246116 2.639559
v -0.150903 1.024164 2.639559
v -0.150903 0.802212 2.639559
v -0.150903 1.911973 2.861510
v -0.150903 1.690020 2.861510
v -0.150903 1.468068 2.861510
v -0.150903 1.246116 2.861510
v -0.150903 1.024164 2.861510
v -0.150903 0.802212 2.861510
v -0.150903 1.690020 1.973705
v -0.150903 1.911973 1.973704
v -0.150903 0.802212 2.417607
v -0.150903 1.024164 2.195656
v -0.150903 2.133925 2.195655
v -0.150903 1.911973 2.195655
v 0.070997 0.580260 1.307850
v 0.070997 0.580260 1.085899
v 0.070997 2.133925 1.085898
v 0.070997 2.133925 1.307849
v 0.070997 2.133925 2.417607
v 0.070997 2.133925 2.639559
v 0.070997 0.802212 1.085899
v 0.070997 0.802212 1.307850
v 0.070997 1.690020 0.641995
v 0.070997 1.468068 0.641995
v 0.070997 1.246116 0.641995
v 0.070997 1.024164 0.641996
v 0.070997 1.468068 3.083462
v 0.070997 1.246116 3.083462
v 0.070997 1.024164 3.083462
v 0.070997 1.911973 0.863947
v 0.070997 1.690020 0.863947
v 0.070997 1.468068 0.863947
v 0.070997 1.246116 0.863948
v 0.070997 1.024164 0.863948
v 0.070997 1.911973 1.085898
v 0.070997 1.690020 1.085898
v 0.070997 1.468068 1.085898
v 0.070997 1.246116 1.085899
v 0.070997 1.024164 1.085899
v 0.070997 1.911973 1.307849
v 0.070997 1.690020 1.307850
v 0.070997 1.468068 1.307850
v 0.070997 1.246116 1.307850
v 0.070997 1.024164 1.307850
v 0.070997 1.468068 1.529802
v 0.070997 1.246116 1.529802
v 0.070997 1.468068 1.751753
v 0.070997 1.246116 1.751753
v 0.070997 1.468068 1.973705
v 0.070997 1.246116 1.973705
v 0.070997 1.690020 2.195656
v 0.070997 1.468068 2.195656
v 0.070997 1.246116 2.195656
v 0.070997 1.911973 2.417607
v 0.070997 1.690020 2.417607
v 0.070997 1.468068 2.417607
v 0.070997 1.246116 2.417607
v 0.070997 1.024164 2.417607
v 0.070997 1.911973 2.639559
v 0.070997 1.690020 2.639559
v 0.070997 1.468068 2.639559
v 0.070997 1.246116 2.639559
v 0.070997 1.024164 2.639559
v 0.070997 0.802212 2.639559
v 0.070997 1.911973 2.861510
v 0.070997 1.690020 2.861510
v 0.070997 1.468068 2.861510
v 0.070997 1.246116 2.861510
v 0.070997 1.024164 2.861510
v 0.070997 0.802212 2.861510
v 0.070997 2.133925 2.195655
v 0.070997 1.690020 1.973705
v 0.070997 0.802212 2.417607
v 0.070997 1.911973 1.973704
v 0.070997 1.024164 2.195656
v 0.070997 1.911973 2.195655
v 0.020997 1.468068 2.861510
v 0.020997 1.468068 2.417607
v 0.020997 1.246116 2.639559
v 0.020997 1.690020 2.861510
v 0.020997 1.690020 2.639559
v 0.020997 1.468068 2.639559
v 0.020997 1.690020 2.417607
v 0.020997 1.246116 2.417607
v -0.100903 1.690020 2.417607
v -0.100903 1.468068 2.417607
v -0.100903 1.246116 2.417607
v -0.100903 1.690020 2.639559
v -0.100903 1.468068 2.639559
v -0.100903 1.246116 2.639559
v -0.100903 1.690020 2.861510
v -0.100903 1.468068 2.861510
vn -0.0000 1.0000 -0.0000
vn 1.0000 -0.0000 -0.0000
vn -0.0000 -1.0000 -0.0000
vn -1.0000 -0.0000 -0.0000
vn -0.0000 -0.0000 -1.0000
vn -0.0000 -0.0000 1.0000
vt 0.375000 0.000000
vt 0.625000 0.000000
vt 0.625000 0.250000
vt 0.375000 0.250000
vt 0.625000 0.500000
vt 0.375000 0.500000
vt 0.625000 0.750000
vt 0.375000 0.750000
vt 0.625000 1.000000
vt 0.375000 1.000000
vt 0.125000 0.500000
vt 0.125000 0.750000
vt 0.847104 0.722104
vt 0.652896 0.722104
vt 0.847104 0.527896
vt 0.875000 0.500000
vt 0.875000 0.750000
vt 0.652896 0.527896
vt 0.000000 0.000000
s 1
f 1/1/1 9/2/1 10/3/1 3/4/1
f 3/4/2 10/3/2 11/5/2 7/6/2
f 7/6/3 11/5/3 12/7/3 5/8/3
f 5/8/4 12/7/4 9/9/4 1/10/4
f 3/11/5 7/6/5 5/8/5 1/12/5
f 2/13/2 6/14/2 16/14/2 13/13/2
f 2/13/6 4/15/6 10/16/6 9/17/6
f 4/15/6 8/18/6 11/5/6 10/16/6
f 8/18/6 6/14/6 12/7/6 11/5/6
f 6/14/6 2/13/6 9/17/6 12/7/6
f 15/18/6 14/15/6 13/13/6 16/14/6
f 8/18/4 4/15/4 14/15/4 15/18/4
f 6/14/1 8/18/1 15/18/1 16/14/1
f 4/15/3 2/13/3 13/13/3 14/15/3
f 35/19/4 41/19/4 20/19/4 19/19/4
f 56/19/4 61/19/4 22/19/4 21/19/4
f 66/19/4 72/19/4 71/19/4 65/19/4
f 65/19/4 71/19/4 70/19/4 64/19/4
f 64/19/4 70/19/4 69/19/4 63/19/4
f 62/19/4 68/19/4 67/19/4 61/19/4
f 60/19/4 65/19/4 64/19/4 59/19/4
f 57/19/4 62/19/4 61/19/4 56/19/4
f 55/19/4 59/19/4 58/19/4 54/19/4
f 54/19/4 58/19/4 57/19/4 53/19/4
f 53/19/4 57/19/4 56/19/4 78/19/4
f 52/19/4 55/19/4 54/19/4 51/19/4
f 50/19/4 52/19/4 51/19/4 49/19/4
f 48/19/4 50/19/4 49/19/4 47/19/4
f 44/19/4 48/19/4 47/19/4 43/19/4
f 18/19/4 17/19/4 46/19/4 40/19/4
f 40/19/4 46/19/4 45/19/4 39/19/4
f 38/19/4 44/19/4 43/19/4 37/19/4
f 36/19/4 42/19/4 41/19/4 35/19/4
f 34/19/4 39/19/4 38/19/4 33/19/4
f 33/19/4 38/19/4 37/19/4 32/19/4
f 31/19/4 36/19/4 35/19/4 30/19/4
f 26/19/4 34/19/4 33/19/4 25/19/4
f 25/19/4 33/19/4 32/19/4 24/19/4
f 24/19/4 32/19/4 31/19/4 23/19/4
f 78/19/4 56/19/4 21/19/4 77/19/4
f 71/19/4 29/19/4 28/19/4 70/19/4
f 70/19/4 28/19/4 27/19/4 69/19/4
f 73/19/4 53/19/4 78/19/4 74/19/4
f 53/19/4 73/19/4 51/19/4 54/19/4
f 60/19/4 59/19/4 55/19/4 76/19/4
f 66/19/4 65/19/4 60/19/4 75/19/4
f 99/19/2 81/19/2 82/19/2 104/19/2
f 118/19/2 83/19/2 84/19/2 123/19/2
f 128/19/2 127/19/2 133/19/2 134/19/2
f 127/19/2 126/19/2 132/19/2 133/19/2
f 126/19/2 125/19/2 131/19/2 132/19/2
f 124/19/2 123/19/2 129/19/2 130/19/2
f 122/19/2 121/19/2 126/19/2 127/19/2
f 119/19/2 118/19/2 123/19/2 124/19/2
f 117/19/2 116/19/2 120/19/2 121/19/2
f 116/19/2 115/19/2 119/19/2 120/19/2
f 115/19/2 140/19/2 118/19/2 119/19/2
f 114/19/2 113/19/2 116/19/2 117/19/2
f 112/19/2 111/19/2 113/19/2 114/19/2
f 110/19/2 109/19/2 111/19/2 112/19/2
f 107/19/2 106/19/2 109/19/2 110/19/2
f 80/19/2 85/19/2 86/19/2 79/19/2
f 85/19/2 103/19/2 108/19/2 86/19/2
f 102/19/2 101/19/2 106/19/2 107/19/2
f 100/19/2 99/19/2 104/19/2 105/19/2
f 98/19/2 97/19/2 102/19/2 103/19/2
f 97/19/2 96/19/2 101/19/2 102/19/2
f 95/19/2 94/19/2 99/19/2 100/19/2
f 90/19/2 89/19/2 97/19/2 98/19/2
f 89/19/2 88/19/2 96/19/2 97/19/2
f 88/19/2 87/19/2 95/19/2 96/19/2
f 140/19/2 135/19/2 83/19/2 118/19/2
f 133/19/2 132/19/2 92/19/2 93/19/2
f 132/19/2 131/19/2 91/19/2 92/19/2
f 136/19/2 138/19/2 140/19/2 115/19/2
f 115/19/2 116/19/2 113/19/2 136/19/2
f 122/19/2 139/19/2 117/19/2 121/19/2
f 128/19/2 137/19/2 122/19/2 127/19/2
f 27/19/6 28/19/6 92/19/6 91/19/6
f 73/19/5 74/19/5 138/19/5 136/19/5
f 49/19/1 51/19/1 113/19/1 111/19/1
f 28/19/6 29/19/6 93/19/6 92/19/6
f 51/19/5 73/19/5 136/19/5 113/19/5
f 50/19/3 48/19/3 110/19/3 112/19/3
f 31/19/5 30/19/5 94/19/5 95/19/5
f 76/19/5 55/19/5 117/19/5 139/19/5
f 47/19/1 49/19/1 111/19/1 109/19/1
f 31/19/6 32/19/6 96/19/6 95/19/6
f 60/19/3 76/19/3 139/19/3 122/19/3
f 48/19/3 44/19/3 107/19/3 110/19/3
f 75/19/5 60/19/5 122/19/5 137/19/5
f 43/19/1 47/19/1 109/19/1 106/19/1
f 67/19/6 68/19/6 155/19/6 144/19/6 130/19/6 129/19/6
f 35/19/5 19/19/5 81/19/5 99/19/5
f 78/19/5 77/19/5 135/19/5 140/19/5
f 39/19/1 45/19/1 108/19/1 103/19/1
f 44/19/3 38/19/3 102/19/3 107/19/3
f 74/19/1 78/19/1 140/19/1 138/19/1
f 37/19/1 43/19/1 106/19/1 101/19/1
f 71/19/6 72/19/6 134/19/6 133/19/6
f 38/19/6 39/19/6 103/19/6 102/19/6
f 42/19/3 36/19/3 100/19/3 105/19/3
f 72/19/3 66/19/3 128/19/3 134/19/3
f 40/19/5 39/19/5 103/19/5 85/19/5
f 20/19/6 41/19/6 104/19/6 82/19/6
f 39/19/3 34/19/3 98/19/3 103/19/3
f 41/19/6 42/19/6 105/19/6 104/19/6
f 32/19/1 37/19/1 101/19/1 96/19/1
f 45/19/6 46/19/6 86/19/6 108/19/6
f 36/19/3 31/19/3 95/19/3 100/19/3
f 61/19/1 67/19/1 129/19/1 123/19/1
f 30/19/1 35/19/1 99/19/1 94/19/1
f 34/19/3 26/19/3 90/19/3 98/19/3
f 17/19/3 18/19/3 80/19/3 79/19/3
f 19/19/1 20/19/1 82/19/1 81/19/1
f 23/19/1 31/19/1 95/19/1 87/19/1
f 21/19/1 22/19/1 84/19/1 83/19/1
f 77/19/1 21/19/1 83/19/1 135/19/1
f 18/19/5 40/19/5 85/19/5 80/19/5
f 29/19/3 71/19/3 133/19/3 93/19/3
f 46/19/6 17/19/6 79/19/6 86/19/6
f 24/19/5 23/19/5 87/19/5 88/19/5
f 69/19/1 27/19/1 91/19/1 131/19/1 141/19/1 156/19/1
f 55/19/3 52/19/3 114/19/3 117/19/3
f 25/19/5 24/19/5 88/19/5 89/19/5
f 22/19/6 61/19/6 123/19/6 84/19/6
f 26/19/5 25/19/5 89/19/5 90/19/5
f 66/19/3 75/19/3 137/19/3 128/19/3
f 52/19/3 50/19/3 112/19/3 114/19/3
f 126/19/1 121/19/1 148/19/1 143/19/1
f 62/19/3 57/19/3 149/19/3 152/19/3
f 124/19/3 130/19/3 144/19/3 145/19/3
f 58/19/6 59/19/6 151/19/6 150/19/6
f 131/19/1 125/19/1 146/19/1 141/19/1
f 57/19/6 58/19/6 150/19/6 149/19/6
f 148/19/2 142/19/2 146/19/2 143/19/2
f 155/19/6 156/19/6 141/19/6 144/19/6
f 146/19/2 145/19/2 144/19/2 141/19/2
f 120/19/6 119/19/6 147/19/6 142/19/6
f 64/19/5 63/19/5 153/19/5 154/19/5
f 121/19/6 120/19/6 142/19/6 148/19/6
f 119/19/3 124/19/3 145/19/3 147/19/3
f 63/19/1 69/19/1 156/19/1 153/19/1
f 125/19/5 126/19/5 143/19/5 146/19/5
f 68/19/3 62/19/3 152/19/3 155/19/3
f 59/19/1 64/19/1 154/19/1 151/19/1
f 153/19/4 156/19/4 155/19/4 152/19/4
f 151/19/4 154/19/4 153/19/4 150/19/4
f 150/19/4 153/19/4 152/19/4 149/19/4
f 142/19/2 147/19/2 145/19/2 146/19/2
